# xmcd
#
# Track frame offsets: 
#        150
#        26567
#        54162
#        84600
#        110730
#        135695
#        166015
#        186285
#        230505
#        248442
#        282680
#        303672
#        324212
#
# Disc length: 4518 seconds
#
# Revision: 2
# Processed by: cddbd v1.5.2PL0 Copyright (c) Steve Scherf et al.
# Submitted via: ExactAudioCopy v0.99pb5
#
DISCID=ac11a40d
DTITLE=Various Artist - 2Hyper 2neurotic
DYEAR=1996
DGENRE=Dance
TTITLE0=Fun Factory - Do Wah Diddy (Fly Bass Remix)
TTITLE1=Party Nation - Machine Gun (Club Mix)
TTITLE2=Pizzaman - Sex on the Streets (Pizzaman Club Mix)
TTITLE3=BKS - Take Control (Matrix Extended Mix)
TTITLE4=Artie The 1 Man Party - A Mover La Colita (Latin Tribal Foe Yo
TTITLE4=Ass Mix)
TTITLE5=The Original - I l Luv You Baby (Dancing Divaz Club Mix)
TTITLE6=Ottawan - Hands Up (Hands In the Air Mix)
TTITLE7=Alcatraz - Give Me Luv (Original Mix)
TTITLE8=Ruffneck - Everybody Be Somebody (Original Mix)
TTITLE9=Love To Infinity - Keep Love Together (Deep Love Mix)
TTITLE10=La Verona - Love of My Life (Under Control X-tended Mix)
TTITLE11=2 Dance 2 - Feel the Rhythm (2 Dance 2 Trance Mix)
TTITLE12=Technohead - I Wanna Be A Hippy (Flamman and Abraxas Mix)
EXTD=
EXTT0=Fun Factory
EXTT1=Party Nation
EXTT2=Pizzaman
EXTT3=BKS
EXTT4=Artie the 1 Man Party
EXTT5=The Original
EXTT6=Ottawan
EXTT7=Alcatraz
EXTT8=Ruffneck
EXTT9=Love To Infinity
EXTT10=La Verona
EXTT11=2 Dance 2
EXTT12=Technohead
PLAYORDER=
